<svg width="100" height="100" viewBox="0 0 100 100" fill="none" xmlns="http://www.w3.org/2000/svg">
<g id="Frame 1">
<path id="Subtract" fill-rule="evenodd" clip-rule="evenodd" d="M16.8148 5C16.8148 3.34315 18.158 2 19.8148 2H80.1852C81.842 2 83.1852 3.34315 83.1852 5V95C83.1852 96.6569 81.842 98 80.1852 98H19.8148C18.158 98 16.8148 96.6569 16.8148 95V5ZM23.9259 24.1481C23.9259 23.0436 24.8214 22.1481 25.9259 22.1481H72.8889C73.9935 22.1481 74.8889 23.0436 74.8889 24.1481V26.0741C74.8889 27.1786 73.9935 28.0741 72.8889 28.0741H25.9259C24.8214 28.0741 23.9259 27.1786 23.9259 26.0741V24.1481ZM25.9259 38.7407C24.8214 38.7407 23.9259 39.6362 23.9259 40.7407V42.6667C23.9259 43.7712 24.8214 44.6667 25.9259 44.6667H55.1111C56.2157 44.6667 57.1111 43.7712 57.1111 42.6667V40.7407C57.1111 39.6362 56.2157 38.7407 55.1111 38.7407H25.9259ZM23.9259 57.3333C23.9259 56.2288 24.8214 55.3333 25.9259 55.3333H62.2222C63.3268 55.3333 64.2222 56.2288 64.2222 57.3333V59.2593C64.2222 60.3638 63.3268 61.2593 62.2222 61.2593H25.9259C24.8214 61.2593 23.9259 60.3638 23.9259 59.2593V57.3333ZM25.9259 73.1111C24.8214 73.1111 23.9259 74.0065 23.9259 75.1111V77.037C23.9259 78.1416 24.8214 79.037 25.9259 79.037H48C49.1046 79.037 50 78.1416 50 77.037V75.1111C50 74.0065 49.1046 73.1111 48 73.1111H25.9259Z" fill="whitesmoke"/>
</g>
</svg>
