<svg width="100" height="100" viewBox="0 0 100 100" fill="none" xmlns="http://www.w3.org/2000/svg">
<path fill-rule="evenodd" clip-rule="evenodd" d="M77.2654 4.74871L9.34895 72.6651L27.4493 90.7654L95.3657 22.8491C100.364 17.8508 100.364 9.74698 95.3657 4.7487C90.3674 -0.24957 82.2636 -0.249567 77.2654 4.74871ZM79.0067 6.08454L76.6893 8.40192L91.7729 23.4855L94.0903 21.1682C98.2555 17.0029 98.2555 10.2498 94.0903 6.08453C89.9251 1.91931 83.1719 1.91931 79.0067 6.08454Z" fill="black"/>
<path fill-rule="evenodd" clip-rule="evenodd" d="M1.08618 98.399C0.96257 98.786 1.32762 99.151 1.7146 99.0274L27.2618 90.8668C27.6185 90.7529 27.7279 90.3017 27.4632 90.037L10.0763 72.6495C9.81158 72.3847 9.36044 72.4942 9.24651 72.8509L1.08618 98.399ZM3.49373 95.9872C3.35926 96.3805 3.73537 96.7566 4.12861 96.6221L23.8416 89.8806C24.1917 89.7609 24.295 89.3156 24.0334 89.0539L11.0617 76.0818C10.8001 75.8202 10.3548 75.9235 10.235 76.2736L3.49373 95.9872Z" fill="black"/>
</svg>
