<svg width="640" height="360" viewBox="0 0 640 360" fill="none" xmlns="http://www.w3.org/2000/svg">
<g clip-path="url(#clip0_0_1)">
<rect width="640" height="201.065" fill="url(#paint0_linear_0_1)"/>
<path d="M0 81.1089C0 81.1089 39.6749 85.6531 85.4796 102.122C131.284 118.59 133.836 118.768 136.963 119.926C140.09 121.084 171.699 128.476 187.406 125.605C203.112 122.734 217.524 116.362 229.346 112.477C241.168 108.593 276.054 97.2416 295.774 96.07C315.495 94.8983 374.192 102.066 394.114 105.904C414.036 109.742 480.583 125.401 509.095 134.649C537.607 143.898 563.212 155.074 584.741 161.125C606.269 167.177 640 167.177 640 167.177V206.979H0L0 81.1089Z" fill="url(#paint1_linear_0_1)"/>
<path d="M0 198.836L281.481 209.692C281.481 209.692 323.856 186.352 343.516 180.226C363.175 174.1 374.369 170.603 384.613 170.145C394.858 169.688 414.656 174.859 421.059 176.349C427.461 177.839 463.223 190.992 471.462 191.858C479.7 192.723 534.494 197.472 552.881 198.836C571.268 200.201 640 198.836 640 198.836V248.375H0V198.836Z" fill="url(#paint2_linear_0_1)"/>
<path d="M-0.00012207 187.898C-0.00012207 187.898 8.66601 183.864 23.0191 180.479C37.3722 177.094 25.8813 178.185 57.9539 170.594C90.0266 163.003 93.95 160.581 102.903 156.928C111.857 153.275 124.112 149.891 134.632 156.928C145.152 163.965 161.434 167.29 165.054 170.508C168.675 173.726 178.596 181.103 185.951 181.917C193.305 182.732 262.519 197.229 262.519 197.229C262.519 197.229 283.407 201.143 313.361 213.77C343.316 226.397 407.198 264.562 407.198 264.562H450.242C450.242 264.562 474.22 231.601 525.86 216.691C577.501 201.78 640 187.898 640 187.898V277.098H-0.00012207V187.898Z" fill="url(#paint3_linear_0_1)"/>
<path d="M0 221.243C0 221.243 52.1065 223.997 69.0564 229.742C86.0064 235.488 173.634 273.86 219.918 271.176C266.202 268.492 310.998 247.091 337.845 247.803C364.693 248.516 354.946 237.45 418.588 229.742C482.23 222.035 488.169 232.149 508.893 238.242C529.617 244.334 640 221.243 640 221.243V359.999H0V221.243Z" fill="url(#paint4_linear_0_1)"/>
</g>
<defs>
<linearGradient id="paint0_linear_0_1" x1="320" y1="0" x2="320" y2="201.065" gradientUnits="userSpaceOnUse">
<stop offset="0.03125" stop-color="#FFD9B7"/>
<stop offset="0.817708" stop-color="#9270AE"/>
</linearGradient>
<linearGradient id="paint1_linear_0_1" x1="320" y1="81.1016" x2="320" y2="302.425" gradientUnits="userSpaceOnUse">
<stop stop-color="#A77FC7"/>
<stop offset="0.541667" stop-color="#77449F"/>
</linearGradient>
<linearGradient id="paint2_linear_0_1" x1="320" y1="170.117" x2="320" y2="298.642" gradientUnits="userSpaceOnUse">
<stop stop-color="#5A4794"/>
<stop offset="0.588542" stop-color="#433373"/>
</linearGradient>
<linearGradient id="paint3_linear_0_1" x1="320" y1="152.823" x2="320" y2="298.643" gradientUnits="userSpaceOnUse">
<stop stop-color="#4747A4"/>
<stop offset="0.8125" stop-color="#2A2A6A"/>
</linearGradient>
<linearGradient id="paint4_linear_0_1" x1="320" y1="221.243" x2="320" y2="359.999" gradientUnits="userSpaceOnUse">
<stop stop-color="#4D399A"/>
<stop offset="0.59375" stop-color="#170850"/>
</linearGradient>
<clipPath id="clip0_0_1">
<rect width="640" height="360" fill="white"/>
</clipPath>
</defs>
</svg>
