<svg width="100" height="100" viewBox="0 0 100 100" fill="none" xmlns="http://www.w3.org/2000/svg"><!-- Created by Seweryn Fater | fater.eu.org -->
<rect x="7" y="11.8134" width="86" height="76.8375" stroke="white" stroke-width="8" stroke-linejoin="round"/>
<path d="M47.1803 56.5575C48.7404 58.108 51.2596 58.108 52.8197 56.5575L91.7908 17.8264C92.9399 16.6843 93.2867 14.9619 92.669 13.4642C92.0513 11.9665 90.5912 10.9892 88.9711 10.9892L11.0289 10.9892C9.40877 10.9892 7.94865 11.9665 7.33098 13.4642C6.71331 14.9619 7.06006 16.6843 8.20918 17.8264L47.1803 56.5575Z" stroke="white" stroke-width="8" stroke-linejoin="round"/>
<path fill-rule="evenodd" clip-rule="evenodd" d="M35.1285 48.8129L5.25224 79.3689C3.00157 81.6707 2.34996 85.0974 3.59865 88.0647C4.84734 91.032 7.75303 92.9617 10.9724 92.9617H88.156C91.3754 92.9617 94.2811 91.032 95.5297 88.0647C96.7784 85.0974 96.1268 81.6707 93.8762 79.3689L63.9922 48.805L58.5391 54.671L80.334 76.9617L88.156 84.9617H76.9675H22.1609H10.9724L18.7944 76.9617L40.5815 54.6789L35.1285 48.8129Z" fill="white"/>
</svg>
