<svg width="640" height="360" viewBox="0 0 640 360" fill="none" xmlns="http://www.w3.org/2000/svg">
<g clip-path="url(#clip0_0_1)">
<path d="M-0.00012207 187.898C-0.00012207 187.898 8.66601 183.864 23.0191 180.479C37.3722 177.094 25.8813 178.185 57.9539 170.594C90.0266 163.003 93.95 160.581 102.903 156.928C111.857 153.275 124.112 149.891 134.632 156.928C145.152 163.965 161.434 167.29 165.054 170.508C168.675 173.726 178.596 181.103 185.951 181.917C193.305 182.732 262.519 197.229 262.519 197.229C262.519 197.229 283.407 201.143 313.361 213.77C343.316 226.397 407.198 264.562 407.198 264.562H450.242C450.242 264.562 474.22 231.601 525.86 216.691C577.501 201.78 640 187.898 640 187.898V277.098H-0.00012207V187.898Z" fill="url(#paint0_linear_0_1)"/>
</g>
<defs>
<linearGradient id="paint0_linear_0_1" x1="320" y1="152.823" x2="320" y2="298.643" gradientUnits="userSpaceOnUse">
<stop stop-color="#4747A4"/>
<stop offset="0.8125" stop-color="#2A2A6A"/>
</linearGradient>
<clipPath id="clip0_0_1">
<rect width="640" height="360" fill="white"/>
</clipPath>
</defs>
</svg>
