<svg width="640" height="360" viewBox="0 0 640 360" fill="none" xmlns="http://www.w3.org/2000/svg">
<g clip-path="url(#clip0_0_1)">
<path d="M0 81.1089C0 81.1089 39.6749 85.6531 85.4796 102.122C131.284 118.59 133.836 118.768 136.963 119.926C140.09 121.084 171.699 128.476 187.406 125.605C203.112 122.734 217.524 116.362 229.346 112.477C241.168 108.593 276.054 97.2416 295.774 96.07C315.495 94.8983 374.192 102.066 394.114 105.904C414.036 109.742 480.583 125.401 509.095 134.649C537.607 143.898 563.212 155.074 584.741 161.125C606.269 167.177 640 167.177 640 167.177V206.979H0L0 81.1089Z" fill="url(#paint0_linear_0_1)"/>
</g>
<defs>
<linearGradient id="paint0_linear_0_1" x1="320" y1="81.1016" x2="320" y2="302.425" gradientUnits="userSpaceOnUse">
<stop stop-color="#A77FC7"/>
<stop offset="0.541667" stop-color="#77449F"/>
</linearGradient>
<clipPath id="clip0_0_1">
<rect width="640" height="360"/>
</clipPath>
</defs>
</svg>
