<svg width="100" height="100" viewBox="0 0 100 100" fill="none" xmlns="http://www.w3.org/2000/svg">
<path fill-rule="evenodd" clip-rule="evenodd" d="M75.5 41.3204V93.5C75.5 95.1569 74.1569 96.5 72.5 96.5H6.5C4.84315 96.5 3.5 95.1569 3.5 93.5V27.5C3.5 25.8431 4.84315 24.5 6.5 24.5H58.3792L59.8792 23H5C3.34315 23 2 24.3431 2 26V95C2 96.6569 3.34315 98 5 98H74C75.6569 98 77 96.6569 77 95V39.8204L75.5 41.3204Z" fill="black"/>
<path fill-rule="evenodd" clip-rule="evenodd" d="M35 52.1219L82.7579 4.36397C86.2726 0.84925 91.9711 0.849243 95.4858 4.36396C99.0006 7.87868 99.0006 13.5772 95.4858 17.0919L47.7279 64.8498L35 52.1219ZM79.1336 10.1521L83.9824 5.3033C86.9113 2.37437 91.66 2.37437 94.589 5.3033C97.5179 8.23223 97.5179 12.981 94.589 15.9099L89.7402 20.7587L79.1336 10.1521ZM78.1848 11.1265L36.4511 52.8601L47.0577 63.4667L88.7914 21.7331L78.1848 11.1265Z" fill="black"/>
<path fill-rule="evenodd" clip-rule="evenodd" d="M29.2339 69.9849C29.1103 70.3719 29.4753 70.7369 29.8623 70.6133L47.5207 64.9729C47.8774 64.8589 47.9869 64.4078 47.7221 64.143L35.7042 52.1251C35.4394 51.8604 34.9883 51.9699 34.8744 52.3266L29.2339 69.9849ZM30.9547 68.2594C30.8202 68.6526 31.1963 69.0287 31.5895 68.8942L45.0971 64.275C45.4472 64.1553 45.5505 63.71 45.2889 63.4484L36.4005 54.56C36.1389 54.2984 35.6936 54.4017 35.5739 54.7518L30.9547 68.2594Z" fill="black"/>
</svg>
