<svg width="50" height="50" viewBox="0 0 50 50" fill="none" xmlns="http://www.w3.org/2000/svg">
        <path id="icon-home-roof" d="M24.4123 1.42686C24.7628 1.17232 25.2372 1.17232 25.5877 1.42686L49.3561 18.6909C50.1399 19.2602 49.7372 20.5 48.7684 20.5H1.23157C0.262784 20.5 -0.139945 19.2602 0.643896 18.6909L24.4123 1.42686Z" fill="black"/>
        <rect id="icon-home-chimney" x="7" y="4" width="5" height="11" rx="1" fill="black"/>
        <path id="icon-home" fill-rule="evenodd" clip-rule="evenodd" d="M7 18C5.34315 18 4 19.3431 4 21V46C4 47.6569 5.34315 49 7 49H43C44.6569 49 46 47.6569 46 46V21C46 19.3431 44.6569 18 43 18H7ZM19 26C18.4477 26 18 26.4477 18 27V44C18 44.5523 18.4477 45 19 45H31C31.5523 45 32 44.5523 32 44V27C32 26.4477 31.5523 26 31 26H19Z" fill="black"/>
        <defs>
    <clipPath id="clip0_1_3">
        <rect width="50" height="50" fill="transparent"/>
    </clipPath>
    </defs>
</svg>
