<svg width="100" height="100" viewBox="0 0 100 100" fill="none" xmlns="http://www.w3.org/2000/svg"><!-- Created by Seweryn Fater | fater.eu.org -->
<g clip-path="url(#clip0_1_3)">
<path fill-rule="evenodd" clip-rule="evenodd" d="M17.0105 37.3387C14.2491 37.3387 12.0105 39.5773 12.0105 42.3387V88.0175C12.0105 90.779 14.2491 93.0175 17.0105 93.0175H82.4463C85.2077 93.0175 87.4463 90.779 87.4463 88.0175V42.3387C87.4463 39.5773 85.2077 37.3387 82.4463 37.3387H17.0105ZM40.1558 51.7075C38.4989 51.7075 37.1558 53.0506 37.1558 54.7075V82.8332C37.1558 84.49 38.4989 85.8332 40.1558 85.8332H59.301C60.9579 85.8332 62.301 84.49 62.301 82.8332V54.7075C62.301 53.0506 60.9579 51.7075 59.301 51.7075H40.1558Z" fill="white"/>
<path d="M47.9654 8.08578C49.0167 7.32216 50.4401 7.32216 51.4914 8.08578L90.4756 36.4017C92.8271 38.1097 91.6189 41.829 88.7125 41.829H10.7442C7.83787 41.829 6.62967 38.1097 8.9812 36.4017L47.9654 8.08578Z" fill="white"/>
<rect x="17.3988" y="12.1935" width="8.98045" height="19.757" rx="3" fill="white"/>
</g>
<defs>
<clipPath id="clip0_1_3">
<rect width="100" height="100" fill="white"/>
</clipPath>
</defs>
</svg>
